# xmcd CD database file
#
# Track frame offsets:
#	150
#	14666
#	27223
#	39259
#	53894
#	67884
#	81496
#	96230
#	109432
#	126675
#	138235
#	152015
#	164977
#	177163
#	188935
#	205707
#	219469
#	234160
#	253957
#	269041
#	280841
#	291982
#	308825
#
# Disc length: 4286 seconds
#
# Revision: 0
# Processed by: cddbd v1.5.2PL0 Copyright (c) Steve Scherf et al.
# Submitted via: CDex 1.70beta2
#
DISCID=6510bc17
DTITLE=Django Reinhardt - The Django Reinhardt Anthology (1946-1949)
DYEAR=2009
DGENRE=Jazz
TTITLE0=Mélodie au Crépuscule
TTITLE1=Echos de France (La Marseillaise)
TTITLE2=Django's Tiger
TTITLE3=Embraceable You
TTITLE4=Topsy
TTITLE5=Songe d'Automne
TTITLE6=Vette
TTITLE7=Tiger Reag
TTITLE8=Django's Dream
TTITLE9=How High the Moon
TTITLE10=Danse Norvégienne
TTITLE11=Just One of Those Things
TTITLE12=Si Tu Savais
TTITLE13=Belleville
TTITLE14=Tears
TTITLE15=Dinette
TTITLE16=Place de Brouckère
TTITLE17=La Mer
TTITLE18=Where Are You My Love
TTITLE19=Minor Swing
TTITLE20=Daphné
TTITLE21=Bricktop
TTITLE22=Djangology
EXTD=YEAR: 2009
EXTT0=
EXTT1=
EXTT2=
EXTT3=
EXTT4=
EXTT5=
EXTT6=
EXTT7=
EXTT8=
EXTT9=
EXTT10=
EXTT11=
EXTT12=
EXTT13=
EXTT14=
EXTT15=
EXTT16=
EXTT17=
EXTT18=
EXTT19=
EXTT20=
EXTT21=
EXTT22=
PLAYORDER=
